/* XPM */
static char *_1b96c4368b04d1a94c797c68904f616hkRWXqLi07text0n[] = {
/* columns rows colors chars-per-pixel */
"32 32 164 2 ",
"   c #010102",
".  c #040208",
"X  c #041017",
"o  c #022933",
"O  c #252628",
"+  c #2B2B2C",
"@  c #2C3236",
"#  c #2A363A",
"$  c #393A3C",
"%  c #023B49",
"&  c #263B43",
"*  c #484A4C",
"=  c #515254",
"-  c #5A5A5A",
";  c #536368",
":  c #6C6E6F",
">  c #6E7171",
",  c #75797A",
"<  c #A12417",
"1  c #9C3931",
"2  c #B62820",
"3  c #BB2A25",
"4  c #BE2F2E",
"5  c #AA3A36",
"6  c #AF3D39",
"7  c #B83434",
"8  c #AE4449",
"9  c #BD797B",
"0  c #0B6F88",
"q  c #1B6D84",
"w  c #09758E",
"e  c #4A7886",
"r  c #6F7B81",
"t  c #767E95",
"y  c #8F7A93",
"u  c #07829E",
"i  c #1A819A",
"p  c #078DAC",
"a  c #1091AF",
"s  c #0396B9",
"d  c #069BBD",
"f  c #0A99BC",
"g  c #1B9EBD",
"h  c #279BB9",
"j  c #3699B4",
"k  c #588392",
"l  c #7F8081",
"z  c #748398",
"x  c #7D959D",
"c  c #4899AE",
"v  c #4B9BB3",
"b  c #5E9EB3",
"n  c #6D9AAA",
"m  c #7A99A3",
"M  c #7899A5",
"N  c #639EB0",
"B  c #709FB0",
"V  c #48A1B6",
"C  c #55A4BA",
"Z  c #67A1B4",
"A  c #6CA1B5",
"S  c #07A5C6",
"D  c #09A5C6",
"F  c #04A9CE",
"G  c #18A7C6",
"H  c #03AED3",
"J  c #1AAED3",
"K  c #03B1D5",
"L  c #04B4DB",
"P  c #09B6DA",
"I  c #18B4D7",
"U  c #16B9DF",
"Y  c #1CB8DE",
"T  c #25ACCF",
"R  c #3EA6C0",
"E  c #3CA9C5",
"W  c #3DAACA",
"Q  c #36B1CF",
"!  c #2DB2D5",
"~  c #24B5DB",
"^  c #23B8DD",
"/  c #35B1D2",
"(  c #3AB2D4",
")  c #39BDDE",
"_  c #03BBE3",
"`  c #0ABCE3",
"'  c #05BDEC",
"]  c #14BBE3",
"[  c #1EBBE3",
"{  c #2DBEE3",
"}  c #33BFE4",
"|  c #46AAC4",
" . c #41A7CB",
".. c #45ADCB",
"X. c #4BADCB",
"o. c #55ACC7",
"O. c #5BAAC6",
"+. c #59ACC9",
"@. c #46B1CE",
"#. c #48B5D5",
"$. c #48B9D9",
"%. c #77B9CE",
"&. c #38C3E6",
"*. c #5AC3DF",
"=. c #68C3DC",
"-. c #46C3E3",
";. c #4FC7E7",
":. c #56C5E6",
">. c #59C5E3",
",. c #76D0E9",
"<. c #000000",
"1. c #000000",
"2. c #000000",
"3. c #000000",
"4. c #000000",
"5. c #000000",
"6. c #000000",
"7. c #000000",
"8. c #000000",
"9. c #000000",
"0. c #000000",
"q. c #000000",
"w. c gray62",
"e. c #A0A09F",
"r. c #879FA3",
"t. c #8EA4AC",
"y. c #97A5AA",
"u. c #A4A4A4",
"i. c #ABAAAB",
"p. c #B2B2B2",
"a. c #D6A692",
"s. c #CCC0BE",
"d. c #8FB3C0",
"f. c #8DC6D8",
"g. c #94C6D6",
"h. c #BCC2C5",
"j. c #ADCCD9",
"k. c #B1D4DF",
"l. c #8ACFE6",
"z. c #8CD5EB",
"x. c #95D8ED",
"c. c #98DAEE",
"v. c #ABD3E0",
"b. c #B8E8F3",
"n. c #C5C5C4",
"m. c #CBCCCC",
"M. c #D2D0CF",
"N. c #C9D6D9",
"B. c #D4D5D5",
"V. c #D8D8D6",
"C. c #D8D9D7",
"Z. c #D4D7D8",
"A. c #DCDCDC",
"S. c #CAE0E3",
"D. c #C5EAF4",
"F. c #E4E5E4",
"G. c #EAEBEA",
"H. c #EFF0EF",
"J. c #EBF4F5",
"K. c #F4F5F5",
"L. c #FAF6F1",
"P. c #F8F8F7",
"I. c #F6FAFA",
"U. c #FBFDFC",
/* pixels */
"1.1.1.1.1.1.1.1.1.1.1.1.1.1.1.1.1.1.1.1.1.1.1.1.1.1.1.1.1.1.1.1.",
"1.1.1.1.1.1.1.1.1.1.1.1.1.1.1.1.1.1.1.1.1.1.1.1.1.1.1.1.1.1.1.1.",
"1.1.1.1.1.1.1.1.1.1.1.1.1.1.1.1.1.1.1.2.1.1.1.1.1.1.1.1.1.1.1.1.",
"1.1.1.1.1.1.1.1.1.1.1.1.1.1.1.1.1.1.1.1.1.1.1.1.1.1.1.1.1.1.1.1.",
"2.1.1.1.2.1.1.1.4.1.1.7.7.7.6.5.6.1.5.2.1.1.1.1.1.1.1.1.1.1.1.1.",
"2.4.1.2.2.1.4.7.9.9.b J J T n 9.7.9.7.9.7.2.1.1.1.1.1.1.1.1.1.1.",
"4.2.N C C n 9.^ I i 0 d _ _ ` Y g q q G ~ 7.2.1.1.1.1.1.1.1.1.1.",
"1.3.E F H P ..{ $.V c X.-.[ _ &.@.v c #.-.o.A 1.1.1.1.1.1.1.1.1.",
"1.3.E H L _ _ x.I.I.A.B.B.*.] D.I.H.Z.Z.N.{ X.5.1.1.1.1.1.1.1.1.",
"4.3.R K _ _ _ c.U.K.- O O f ] D.U.A.$ O & K X.8.1.1.1.1.1.1.1.1.",
"1.5.x / _ _ _ c.U.K.-   X s ] D.U.A.+ . o K X.5.1.1.1.1.1.1.1.1.",
"2.1.2.O._ _ _ x.U.K.-   X s ] D.U.A.+ . o H X.7.8.2.1.2.1.2.1.1.",
"1.1.2.O._ _ _ x.U.K.-   X s ] D.U.A.+ . o K ] ~ ! 9.7.8.1.1.1.1.",
"1.1.2.O._ _ _ z.J.J.; # # h ) S.L.Z.& o % K _ _ _ Y [ B 1.1.1.1.",
"1.1.2.+.d d _ [ } } ) k.j.j.h.a.s.>.L L L _ _ _ _ L ' A 2.5.1.1.",
"1.1.2.k S L _ _ _ _ #.9 6 6 5 1 z ` _ _ _ _ _ _ _ u D n 6.6.1.1.",
"1.1.2.o._ _ _ _ _ _ W 7 3 3 2 < t _ _ _ _ _ K S _ _ w r 2.4.1.1.",
"1.1.1.A ! F u _ _ _ U y 4 4 4 8 E _ _ _ _ _ K p a ..@.M 4.6.1.1.",
"1.1.1.2., e | @.....U !  . . .v ..............@.v 7.8.5.1.1.1.1.",
"1.1.4.1.0.0.6.2.6.0.f.z.;.` :.t.0.1.2.2.6.2.2.2.2.5.5.6.1.1.1.1.",
"1.1.1.1.n.G.G.G.F.F.A.G.b.l.v.V.m.m.m.m.u.1.1.1.1.1.1.1.1.1.1.1.",
"1.1.1.1.m.U.U.U.p.w.F.G.A.G.G.i.p.V.V.V.i.1.1.1.1.1.1.1.1.1.1.1.",
"1.1.1.1.n.U.U.U.i.0.F.P.K.A.H.p.p.V.V.V.i.1.1.1.1.1.1.1.1.1.1.1.",
"1.1.1.1.y.g.,.f.q.e.0.<.<.l > l 5.%.=.d.q.1.1.1.1.1.1.1.1.1.1.1.",
"1.1.2.4.Z / / ( r.A.B.$ * > : = @ j Q ( M 1.1.1.1.1.1.1.1.1.1.1.",
"1.1.1.2.4.2.4.1.0.u.A.B.F.K.A.u., 1.8.6.2.1.1.1.1.1.1.1.1.1.1.1.",
"1.1.2.6.2.1.1.2.1.0.F.I.U.K.M.u.2.1.1.4.1.1.1.1.1.1.1.1.1.1.1.1.",
"1.1.1.1.1.1.1.1.4.8.t.>.>.:.$.W 8.1.1.1.1.1.1.1.1.1.1.1.1.1.1.1.",
"1.1.1.1.1.1.1.1.1.1.8.m m m m x 5.1.1.1.1.1.1.1.1.1.1.1.1.1.1.1.",
"1.1.1.1.1.1.1.1.1.1.1.1.1.1.1.1.1.1.1.1.1.1.1.1.1.1.1.1.1.1.1.1.",
"1.1.1.1.1.1.1.1.1.1.1.1.2.1.5.1.1.1.1.1.1.1.1.1.1.1.1.1.1.1.1.1.",
"1.1.1.1.1.1.1.1.1.1.1.1.2.1.1.1.1.1.1.1.1.1.1.1.1.1.1.1.1.1.1.1."
};
