/* XPM */
static char * pacMan22_xpm[] = {
"32 32 59 1",
" 	c None",
".	c #452B2B",
"+	c #291F14",
"@	c #78523D",
"#	c #493231",
"$	c #2F261B",
"%	c #A17854",
"&	c #C2A678",
"*	c #7D5844",
"=	c #A47D5A",
"-	c #C59896",
";	c #FFD9AD",
">	c #302E2C",
",	c #BC8683",
"'	c #753E2D",
")	c #AA8565",
"!	c #473F35",
"~	c #7D4330",
"{	c #131313",
"]	c #ECBB92",
"^	c #969696",
"/	c #EBB385",
"(	c #000000",
"_	c #8A6957",
":	c #1D1D1D",
"<	c #533F3C",
"[	c #614C4B",
"}	c #D8D8D8",
"|	c #D3D3D3",
"1	c #425A7E",
"2	c #28446C",
"3	c #2D486F",
"4	c #FEDAB1",
"5	c #900004",
"6	c #D48C52",
"7	c #5C0003",
"8	c #FF252C",
"9	c #FF595C",
"0	c #DE0007",
"a	c #FE2B32",
"b	c #FE5E60",
"c	c #015478",
"d	c #4E0002",
"e	c #0070A4",
"f	c #008BCC",
"g	c #003D58",
"h	c #023332",
"i	c #361100",
"j	c #782601",
"k	c #A43707",
"l	c #5A1C01",
"m	c #240B00",
"n	c #411907",
"o	c #C8AE85",
"p	c #CBA4A2",
"q	c #AD8A6B",
"r	c #1B0000",
"s	c #AE0005",
"t	c #4F2F20",
"                                ",
"           . .+.+.+.+           ",
"          +@.@@@@..+++.         ",
"         +.%@%&&%@.+.+@+        ",
"        +.@@%&%%%%..@@.#+       ",
"       .&@%@&&%%%%@.@%*@.       ",
"      #.@&%&%&@&%&%@@&%&@.      ",
"     +.#&%@&@&@&&&%@*%@&&.+     ",
"      +@&.@%@&@%%%@.%@.%&@+     ",
"      .&%.@+.%@%%@.@&+.@&@+     ",
"      .&@+.-+@%@%.@&+-+@%.+     ",
"      .%@>+;-+@%@.@+-;+.@.+     ",
"       .)!,~~~$.#*$''',.@+      ",
"      (+_!]^:>]-<[-((^/+@+(     ",
"      (/_>]|>:]]-.]:(|/+./(     ",
"       (#+/|32/////32|/+.(      ",
"        .+/|22;;;;;22|/+.       ",
"       7+(6/;;;;;;;;;/6(+7      ",
"      5080'6/;>;;;>;/6'0987     ",
"     5088806'6:/>/:6''598807    ",
"    7885088595'':''5a50599807   ",
"    7508550589976799855855507   ",
"    '6650(5859507059585('/67    ",
"    ~66'' 58950999059('6666'    ",
"    '//6( 50999999990';;/6(     ",
"    '6/'( d7708880077';;/~(     ",
"    (66'  ceeffffeeec(6/6(      ",
"     (((  cceffecccccc(((       ",
"          (ceefeehcccc          ",
"           (liiij(ii(           ",
"           (ijkji(((            ",
"             (ii(               "};
